<svg id="black" xmlns="http://www.w3.org/2000/svg" width="369.82" height="122" viewBox="0 0 184.91 61">
  <defs>
    <style>
      .cls-1 {
        fill-rule: evenodd;
      }
    </style>
  </defs>
  <path id="climate_positive_workforce_copy" data-name="climate positive workforce copy" class="cls-1" d="M1138.02,1017.97a5.988,5.988,0,0,0,10.74,3.4l-2.66-1.88a2.491,2.491,0,0,1-2.11,1.11,2.679,2.679,0,0,1-2.73-2.63,2.614,2.614,0,0,1,2.73-2.56,2.506,2.506,0,0,1,2.11,1.1l2.66-1.9A6,6,0,0,0,1138.02,1017.97Zm13.29-11.42v16.94h3.26v-16.94h-3.26Zm9.67,5.97h-3.24v10.97h3.24v-10.97Zm-3.66-4.07a2,2,0,0,0,2.04,1.93,1.954,1.954,0,0,0,2-1.93,1.929,1.929,0,0,0-2-1.9A1.97,1.97,0,0,0,1157.32,1008.45Zm18.98,7a1.915,1.915,0,0,1,1.81,2.19v5.85h3.24v-6.23c0-3.31-1.62-4.98-4.23-4.98a3.778,3.778,0,0,0-3.29,1.95,3.539,3.539,0,0,0-3.52-1.93,3.145,3.145,0,0,0-2.87,1.81v-1.59h-3.26v10.97h3.26v-5.8c0-1.67.92-2.24,1.91-2.24a1.906,1.906,0,0,1,1.81,2.12v5.92h3.26v-5.8C1174.42,1016.09,1175.27,1015.45,1176.3,1015.45Zm16.47,8.04h3.24v-10.97h-3.24v1.22a4.053,4.053,0,0,0-3.2-1.46,5.711,5.711,0,0,0,0,11.42,4.194,4.194,0,0,0,3.2-1.46v1.25Zm-5.4-5.5a2.689,2.689,0,0,1,2.74-2.61,2.61,2.61,0,1,1,0,5.22A2.689,2.689,0,0,1,1187.37,1017.99Zm16.14-5.47v-4.21h-3.25v4.21h-1.99v2.58h1.99v8.39h3.25v-8.39h2.3v-2.58h-2.3Zm12.15,7.35a3.024,3.024,0,0,1-2.4,1.03c-1.15,0-2.54-.56-2.7-1.83h8.03c0.03-.28.05-0.73,0.05-1.01a5.675,5.675,0,1,0-11.35-.09,5.586,5.586,0,0,0,5.73,5.75,5.871,5.871,0,0,0,5.01-2.23Zm-5.06-2.84a2.406,2.406,0,0,1,2.45-1.88,2.222,2.222,0,0,1,2.3,1.88h-4.75Zm-68.79,22.77a2.46,2.46,0,0,1,2.44-2.56,2.536,2.536,0,0,1,0,5.07A2.392,2.392,0,0,1,1141.81,1039.8Zm-3.19-5.32v15.75h3.12v-6.47a3.471,3.471,0,0,0,3.1,1.51,5.525,5.525,0,0,0,0-11.02,3.492,3.492,0,0,0-3.1,1.54v-1.31h-3.12Zm18.77,7.67a2.41,2.41,0,1,1,2.4-2.42A2.325,2.325,0,0,1,1157.39,1042.15Zm0,3.08a5.49,5.49,0,1,0-5.47-5.5A5.355,5.355,0,0,0,1157.39,1045.23Zm12.23-4.17c0.77,0.21,1.04.46,1.04,0.91a1.127,1.127,0,0,1-1.29.88,1.486,1.486,0,0,1-1.56-1.22h-2.94c0.02,2.35,2.26,3.64,4.41,3.64,2.22,0,4.57-1.06,4.57-3.3,0-.68-0.32-2.38-2.87-3.08l-1.79-.47a1.015,1.015,0,0,1-.93-0.8,0.918,0.918,0,0,1,1.11-.79,1.007,1.007,0,0,1,1.2.93h2.96c-0.02-2.58-2.24-3.51-4.34-3.51-2.22,0-4.1,1.45-4.12,3.01-0.02.97,0,2.58,3.17,3.44Zm9.67-6.58h-3.12v10.57h3.12v-10.57Zm-3.53-3.92a1.92,1.92,0,0,0,1.97,1.86,1.883,1.883,0,0,0,1.92-1.86,1.858,1.858,0,0,0-1.92-1.83A1.9,1.9,0,0,0,1175.76,1030.56Zm10.62,3.92v-4.05h-3.12v4.05h-1.92v2.49h1.92v8.08h3.12v-8.08h2.22v-2.49h-2.22Zm7.39,0h-3.12v10.57h3.12v-10.57Zm-3.53-3.92a1.927,1.927,0,0,0,1.97,1.86,1.883,1.883,0,0,0,1.92-1.86,1.858,1.858,0,0,0-1.92-1.83A1.9,1.9,0,0,0,1190.24,1030.56Zm9.59,14.49h2.69l4.48-10.57h-3.37l-2.45,6.56-2.46-6.56h-3.35Zm15.99-3.49a2.924,2.924,0,0,1-2.31,1c-1.11,0-2.45-.55-2.6-1.77h7.74c0.02-.27.04-0.7,0.04-0.97a5.466,5.466,0,1,0-10.93-.09,5.381,5.381,0,0,0,5.52,5.54,5.635,5.635,0,0,0,4.82-2.15Zm-4.87-2.74a2.313,2.313,0,0,1,2.35-1.81,2.14,2.14,0,0,1,2.22,1.81h-4.57Zm-61.26,18.53-2.43,6.62-2.45-6.62h-1.18l-2.43,6.63-2.46-6.63h-1.23l3.2,8.35h1l2.49-6.83,2.59,6.83h1.01l3.11-8.35h-1.22Zm6.91,8.53a4.267,4.267,0,0,0,4.38-4.38A4.37,4.37,0,1,0,1156.6,1065.88Zm0-1.09a3.161,3.161,0,0,1-3.22-3.29,3.23,3.23,0,1,1,6.46,0A3.183,3.183,0,0,1,1156.6,1064.79Zm10.6-7.62a2.666,2.666,0,0,0-2.61,2.22v-2.04h-1.16v8.35h1.16v-3.15c0-2.06.61-4.27,2.6-4.27a2.9,2.9,0,0,1,1.12.23l0.22-1.09A3.321,3.321,0,0,0,1167.2,1057.17Zm10.18,8.53-4.63-4.72,3.58-3.63h-1.59l-3.13,3.2v-7.91h-1.15v13.06h1.15v-4.29l4.22,4.29h1.55Zm5.21-11.97h0.62v-1.09h-0.78c-2.19,0-3.01,1.52-3.01,3.62v1.09h-1.64v0.98h1.64v7.37h1.15v-7.37h2.13v-0.98h-2.13v-1.22C1180.57,1054.79,1181.01,1053.73,1182.59,1053.73Zm5.72,12.15a4.275,4.275,0,0,0,4.39-4.38A4.375,4.375,0,1,0,1188.31,1065.88Zm0-1.09a3.161,3.161,0,0,1-3.22-3.29,3.23,3.23,0,1,1,6.46,0A3.183,3.183,0,0,1,1188.31,1064.79Zm10.61-7.62a2.676,2.676,0,0,0-2.62,2.22v-2.04h-1.16v8.35h1.16v-3.15c0-2.06.61-4.27,2.6-4.27a2.9,2.9,0,0,1,1.12.23l0.22-1.09A3.306,3.306,0,0,0,1198.92,1057.17Zm6.44,8.69a4.342,4.342,0,0,0,3.01-1.14l-0.72-.77a3.3,3.3,0,0,1-2.25.82,3.255,3.255,0,1,1,0-6.51,3.318,3.318,0,0,1,2.25.84l0.72-.79a4.436,4.436,0,0,0-3.01-1.14A4.345,4.345,0,1,0,1205.36,1065.86Zm12.95-4.36a4.016,4.016,0,0,0-4.12-4.33,4.135,4.135,0,0,0-4.26,4.33,4.308,4.308,0,0,0,8,2.29l-0.98-.43a3.128,3.128,0,0,1-2.72,1.43,2.954,2.954,0,0,1-3.13-2.79h7.19A4.18,4.18,0,0,0,1218.31,1061.5Zm-7.19-.49a2.9,2.9,0,0,1,3.07-2.75,2.85,2.85,0,0,1,2.99,2.75h-6.06Z" transform="translate(-1033.78 -1006)"/>
  <rect id="Rectangle_2_copy_11" data-name="Rectangle 2 copy 11" x="90.22" width="3" height="61"/>
  <g id="Logo">
    <path id="Shape_1_copy_5" data-name="Shape 1 copy 5" class="cls-1" d="M1063.93,1039.2a15.289,15.289,0,0,1,.49-1.6,7.31,7.31,0,0,1,.77-1.53,6.555,6.555,0,0,1,1.07-1.28,4.743,4.743,0,0,1,1.41-.91c0.22-.04.45-0.08,0.71-0.11a4.583,4.583,0,0,0,.74-0.13,2.318,2.318,0,0,0,.64-0.26,0.9,0.9,0,0,0,.4-0.48,1.231,1.231,0,0,0,.06-0.36,0.632,0.632,0,0,0-.08-0.32,1.906,1.906,0,0,1-.19-0.36,0.644,0.644,0,0,0-.32-0.36,2.228,2.228,0,0,0-.63-0.23,5.662,5.662,0,0,0-.79-0.13c-0.28-.02-0.54-0.03-0.79-0.03s-0.44.01-.62,0.02-0.32.04-.42,0.06a5.158,5.158,0,0,0-2.12,1.08,9.537,9.537,0,0,0-1.82,1.93,10.441,10.441,0,0,0-1.26,2.31,6.041,6.041,0,0,0-.46,2.16c-0.01.11-.02,0.21-0.02,0.32s0,0.21.01,0.31v0.07a16.546,16.546,0,0,1-2.23,1.66,6.919,6.919,0,0,1-2.79.79h-0.2a1.578,1.578,0,0,1-1.38-.76,3.4,3.4,0,0,1-.36-1.6,7.1,7.1,0,0,1,.08-1.01c0.05-.34.12-0.68,0.2-1.01a8.645,8.645,0,0,1,1.35-3.02,2.462,2.462,0,0,1,1.84-1.25,0.118,0.118,0,0,1,.1.03,0.215,0.215,0,0,0,.1.02,4.273,4.273,0,0,0,.61.04,1.96,1.96,0,0,0,1.15-.31,0.9,0.9,0,0,0,.42-0.72,0.867,0.867,0,0,0-.22-0.56,1.575,1.575,0,0,0-.79-0.43,4.749,4.749,0,0,0-.99-0.23,8.18,8.18,0,0,0-.98-0.06,7.18,7.18,0,0,0-3.05.66,8.316,8.316,0,0,0-2.52,1.77,8.83,8.83,0,0,0-1.74,2.51,6.874,6.874,0,0,0-.65,2.89,5.935,5.935,0,0,0,.39,2.26,4.683,4.683,0,0,0,.99,1.57,4.3,4.3,0,0,0,1.41.96,6.606,6.606,0,0,0,1.65.48,7.066,7.066,0,0,0,1.3.12,7.3,7.3,0,0,0,2.9-.59,10.745,10.745,0,0,0,2.63-1.62c0.35-.3.7-0.63,1.04-0.97a4.682,4.682,0,0,0,.38.78,4.877,4.877,0,0,0,.83.95,9.048,9.048,0,0,0,1.21.88,4.29,4.29,0,0,0,1.12.53,4.01,4.01,0,0,0,1.22.18,2.78,2.78,0,0,0,1.06-.2,4.192,4.192,0,0,0,1.49-1.07,6.755,6.755,0,0,0,1.08-1.59,8.374,8.374,0,0,0,.64-1.82,7.986,7.986,0,0,0,.2-1.76c0-.12-0.01-0.27-0.02-0.46s-0.04-.36-0.08-0.55a2.706,2.706,0,0,0-.15-0.5,0.458,0.458,0,0,0-.24-0.28,0.129,0.129,0,0,1-.02-0.08,0.1,0.1,0,0,0-.02-0.07,0.636,0.636,0,0,0-.13-0.26,1.7,1.7,0,0,0-.19-0.19,1.14,1.14,0,0,0-.16-0.32,0.4,0.4,0,0,0-.25-0.21l-0.15-.28a0.451,0.451,0,0,0-.13-0.01q-0.12,0-.12.09a0.155,0.155,0,0,0-.02.08,0.2,0.2,0,0,0,.01.08,0.22,0.22,0,0,1,.01.08,2.465,2.465,0,0,1,.17.71,6.387,6.387,0,0,1,.05.72,15.458,15.458,0,0,1-.45,2.33,11.443,11.443,0,0,1-.84,2.18,5.161,5.161,0,0,1-.43.71,2.8,2.8,0,0,1-.6.59,2.351,2.351,0,0,1-.52.32,1.794,1.794,0,0,1-.7.12,0.949,0.949,0,0,1-.67-0.24,1.681,1.681,0,0,1-.41-0.62,2.986,2.986,0,0,1-.2-0.82,6.584,6.584,0,0,1-.06-0.87,4.434,4.434,0,0,1,.02-0.52C1063.91,1039.44,1063.92,1039.31,1063.93,1039.2Zm20.56,0a13.131,13.131,0,0,1,.48-1.6,7.828,7.828,0,0,1,.77-1.53,6.606,6.606,0,0,1,1.08-1.28,4.7,4.7,0,0,1,1.4-.91c0.22-.04.46-0.08,0.71-0.11a4.7,4.7,0,0,0,.75-0.13,2.452,2.452,0,0,0,.64-0.26,1,1,0,0,0,.4-0.48,1.231,1.231,0,0,0,.06-0.36,0.634,0.634,0,0,0-.09-0.32,1.906,1.906,0,0,1-.19-0.36,0.644,0.644,0,0,0-.32-0.36,2.12,2.12,0,0,0-.63-0.23,5.764,5.764,0,0,0-.78-0.13c-0.29-.02-0.55-0.03-0.8-0.03s-0.44.01-.62,0.02-0.32.04-.42,0.06a5.219,5.219,0,0,0-2.12,1.08,9.823,9.823,0,0,0-1.82,1.93,10.869,10.869,0,0,0-1.26,2.31,6.041,6.041,0,0,0-.46,2.16,1.713,1.713,0,0,0-.01.32v0.29c-0.37.5-.73,0.96-1.08,1.41a24.157,24.157,0,0,1-1.66,1.9,2.085,2.085,0,0,1-1.07.73,0.213,0.213,0,0,1-.12-0.03,1.807,1.807,0,0,1-.32-0.98c-0.06-.53-0.1-1.15-0.11-1.87,0-.57.01-1.15,0.03-1.76s0.04-1.18.06-1.73,0.04-1.05.06-1.49,0.05-.77.07-1c0.59-1.19,1.16-2.3,1.71-3.35s1.05-2.08,1.5-3.13a30.476,30.476,0,0,0,1.21-3.3,27.374,27.374,0,0,0,.84-3.86,11.6,11.6,0,0,0,.11-1.47,3.756,3.756,0,0,0-.62-2.35,2.026,2.026,0,0,0-1.64-.72h-0.28a2.31,2.31,0,0,0-.32.04,4.024,4.024,0,0,0-2.24,1.6,16.505,16.505,0,0,0-2.08,3.5,31.2,31.2,0,0,0-1.64,4.71,34.312,34.312,0,0,0-.96,5.16,45.418,45.418,0,0,0-.3,5.24,19.751,19.751,0,0,0,.4,4.14,4.845,4.845,0,0,0,1.25,2.56,6.938,6.938,0,0,0,1.46,1.07,3.143,3.143,0,0,0,1.49.38,4.682,4.682,0,0,0,2.86-1.27,15.331,15.331,0,0,0,1.86-1.94c0.06,0.1.11,0.2,0.18,0.3a4.506,4.506,0,0,0,.82.95,9.746,9.746,0,0,0,1.21.88,4.448,4.448,0,0,0,1.12.53,4.073,4.073,0,0,0,1.23.18,2.766,2.766,0,0,0,1.05-.2,4.192,4.192,0,0,0,1.49-1.07,6.755,6.755,0,0,0,1.08-1.59,8.374,8.374,0,0,0,.64-1.82,7.427,7.427,0,0,0,.2-1.76c0-.12-0.01-0.27-0.02-0.46s-0.04-.36-0.08-0.55a1.729,1.729,0,0,0-.15-0.5,0.458,0.458,0,0,0-.24-0.28,0.129,0.129,0,0,1-.02-0.08,0.1,0.1,0,0,0-.02-0.07,0.636,0.636,0,0,0-.13-0.26,1.573,1.573,0,0,0-.18-0.19,1.262,1.262,0,0,0-.17-0.32,0.4,0.4,0,0,0-.25-0.21l-0.15-.28a0.412,0.412,0,0,0-.12-0.01c-0.09,0-.13.03-0.13,0.09a0.155,0.155,0,0,0-.02.08c0,0.03.01,0.06,0.01,0.08a0.235,0.235,0,0,1,.02.08,2.844,2.844,0,0,1,.17.71,6.243,6.243,0,0,1,.04.72,15.458,15.458,0,0,1-.45,2.33,10.813,10.813,0,0,1-.84,2.18,5.161,5.161,0,0,1-.43.71,2.589,2.589,0,0,1-.6.59,2.351,2.351,0,0,1-.52.32,1.776,1.776,0,0,1-.69.12,0.957,0.957,0,0,1-.68-0.24,1.814,1.814,0,0,1-.41-0.62,3.4,3.4,0,0,1-.2-0.82,6.584,6.584,0,0,1-.06-0.87c0-.18.01-0.35,0.02-0.52A3.582,3.582,0,0,1,1084.49,1039.2Zm-6.75-11.36c0.27-1.19.59-2.43,0.96-3.7s0.78-2.48,1.21-3.62a15.166,15.166,0,0,1,1.19-2.59c0-.02,0,0.03.02,0.16s0.02,0.24.02,0.35a30.7,30.7,0,0,1-.65,3.28c-0.26,1.03-.56,2.04-0.89,3.03s-0.68,1.97-1.06,2.93-0.78,1.96-1.22,2.96A16.5,16.5,0,0,1,1077.74,1027.84Zm36.41,10.15a0.585,0.585,0,0,0-.49-0.3,0.334,0.334,0,0,0-.28.21c-0.04.09-.28,0.48-0.48,0.89a11.075,11.075,0,0,1-1.25,1.91,1.308,1.308,0,0,1-.72.54,0.2,0.2,0,0,1-.16-0.07,1.185,1.185,0,0,1-.17-0.69,12.258,12.258,0,0,1,.09-1.79c0.09-.74.19-1.49,0.3-2.26s0.23-1.46.34-2.09a11.718,11.718,0,0,0,.18-1.31,1.312,1.312,0,0,0,.07-0.53,1.56,1.56,0,0,0-.49-1.04,1.347,1.347,0,0,0-1.06-.43c-0.11,0-.21,0-0.31-0.01a2.613,2.613,0,0,0-.28,0,0.529,0.529,0,0,0-.38.14,2.733,2.733,0,0,0-.71,1.21,15.388,15.388,0,0,0-.57,2.05c-0.05.2-.08,0.4-0.12,0.61a1.858,1.858,0,0,0-.55.22,30.056,30.056,0,0,0-3.2,2.28c-0.04-.73-0.18-4.46-0.18-4.61a1.61,1.61,0,0,1,.04-0.37,2.308,2.308,0,0,0,.03-0.37,1.067,1.067,0,0,0-.26-0.66,1.3,1.3,0,0,0-.54-0.35,2.487,2.487,0,0,0-.69-0.15,6.228,6.228,0,0,0-.74-0.04,7.965,7.965,0,0,0-3.29.73,12.956,12.956,0,0,0-2.97,1.83,10.222,10.222,0,0,0-2.14,2.41,4.708,4.708,0,0,0-.82,2.5c0,0.43,1.01,5.08,6.85.72a6.432,6.432,0,0,0,2.22-2.59c0.02,0.35.03,0.4,0.03,0.75v2.06a80.556,80.556,0,0,0-6.33,7.29,19.248,19.248,0,0,0-2.77,6.2c-0.32,1.69-.97,5.34,2.93,4.41,2.04-.49,5.39-4.57,6.29-7.03,0.99-2.7,2.27-5.74,2.42-9.38l-0.01-.57,3.13-3.18s0.15-.24.33-0.55a0.772,0.772,0,0,0-.02.15,13.731,13.731,0,0,0-.08,2.04,6.107,6.107,0,0,0,.34,1.9,4,4,0,0,0,.65,1.15,2.346,2.346,0,0,0,.73.61c0.25,0.13.45,0.22,0.61,0.3a1.969,1.969,0,0,0,.48.14,2.142,2.142,0,0,0,.44.01,2.663,2.663,0,0,0,1.64-.71,8.2,8.2,0,0,0,1.47-1.68,3.98,3.98,0,0,0,.59-1.29,0.868,0.868,0,0,0,.11-0.49A1.385,1.385,0,0,0,1114.15,1037.99Zm-15.2-1.35c-1.51,1.59-3.35,2.17-3.75,1.8-0.42-.39.85-2.3,2.29-3.51a9.891,9.891,0,0,1,3.39-2.15C1101.32,1032.8,1100.67,1034.85,1098.95,1036.64Zm1.4,9.56a29.643,29.643,0,0,1-1.49,3.35,25.419,25.419,0,0,1-1.92,3.1,8.66,8.66,0,0,1-1.98,2.05,7.646,7.646,0,0,1,.73-2.93,23.928,23.928,0,0,1,1.64-3.06c0.63-1.01,1.29-1.98,1.98-2.9s1.27-1.73,1.77-2.43A11.291,11.291,0,0,1,1100.35,1046.2Zm9.17-17.41a4.442,4.442,0,0,0,.61.75,0.945,0.945,0,0,0,.73.33,1.492,1.492,0,0,0,1.11-.65,2.046,2.046,0,0,0,.45-1.43l-0.01-.3a3.084,3.084,0,0,0-.35-1.48,0.866,0.866,0,0,0-.79-0.38,2.025,2.025,0,0,0-.61.16,3.074,3.074,0,0,0-.8.42,3.127,3.127,0,0,0-.66.65,1.208,1.208,0,0,0-.25.8A8.339,8.339,0,0,0,1109.52,1028.79Zm-60.89-8.07a1.355,1.355,0,0,0,1.14-1.55c-0.24-.16-10.03-0.98-12.64-0.49s-0.81,1.8-.81,1.8-1.47,11.67-1.96,14.86c-0.41,2.64-.98,7.67-0.16,8.81s6.22,0.61,8.15.16c4.65-1.06,5.79-1.47,6.04-1.71a0.6,0.6,0,0,0-.65-0.9,61.4,61.4,0,0,1-6.37.25c-0.48.01-2.52,0-2.52-.49s1.14-8.98,1.14-8.98c0-.25,5.79.08,6.36,0s1.3-1.55.9-1.8-6.94-.32-6.94-0.32l1.39-9.31S1047.74,1020.72,1048.63,1020.72Z" transform="translate(-1033.78 -1006)"/>
  </g>
</svg>
