<?xml version="1.0" encoding="UTF-8" standalone="no"?>
<!DOCTYPE svg PUBLIC "-//W3C//DTD SVG 1.1//EN" "http://www.w3.org/Graphics/SVG/1.1/DTD/svg11.dtd">
<svg width="100%" height="100%" viewBox="0 0 492 92" version="1.1" xmlns="http://www.w3.org/2000/svg" xmlns:xlink="http://www.w3.org/1999/xlink" xml:space="preserve" style="fill-rule:evenodd;clip-rule:evenodd;stroke-linecap:round;stroke-linejoin:round;stroke-miterlimit:5;">
    <g>
        <path d="M52.53,80.25L39.29,89.85L1.6,37.873L22.325,22.843" style="fill:none;stroke:rgb(246,138,36);stroke-width:3.2px;"/>
        <path d="M55.2,72.905L39.595,77.81L20.349,16.55L45.804,8.553" style="fill:none;stroke:rgb(246,138,36);stroke-width:3.2px;"/>
        <path d="M62.42,66.02L45.921,66.06L45.789,1.6L87.019,1.633" style="fill:none;stroke:rgb(246,138,36);stroke-width:3.2px;"/>
    </g>
    <path d="M109.64,19.322L109.64,22.492L81.857,22.492L81.857,44.682L105.907,44.682L105.907,47.852L81.857,47.852L81.857,72.092L78.016,72.092L78.016,19.324L109.64,19.324" style="fill:rgb(246,138,36);fill-rule:nonzero;"/>
    <g>
        <path d="M119.3,34.985L119.3,58.703C119.3,65.677 122.433,69.853 128.959,69.853C133.77,69.853 138.019,67.243 141.34,62.879L141.34,34.985L144.92,34.985L144.92,72.095L142.943,72.095C142.235,72.095 141.899,71.759 141.861,71.125L141.526,65.605C138.095,69.894 133.583,72.691 128.064,72.691C119.859,72.691 115.72,67.321 115.72,58.707L115.72,34.989L119.3,34.989" style="fill:white;fill-rule:nonzero;"/>
        <path d="M159.17,64.15L159.17,38.791L153.837,38.791C153.277,38.791 152.904,38.493 152.904,37.933L152.904,36.554L159.244,36.106L160.139,22.83C160.177,22.382 160.512,21.972 161.072,21.972L162.75,21.972L162.75,36.143L174.422,36.143L174.422,38.791L162.75,38.791L162.75,63.961C162.75,68.026 164.987,69.778 167.859,69.778C171.401,69.778 173.005,67.28 173.714,67.28C173.901,67.28 174.124,67.391 174.311,67.653L175.281,69.219C173.379,71.307 170.283,72.687 167.151,72.687C162.111,72.688 159.17,69.966 159.17,64.148" style="fill:white;fill-rule:nonzero;"/>
        <path d="M186.25,34.985L186.25,58.703C186.25,65.677 189.383,69.853 195.909,69.853C200.72,69.853 204.969,67.243 208.29,62.879L208.29,34.985L211.87,34.985L211.87,72.095L209.893,72.095C209.185,72.095 208.849,71.759 208.811,71.125L208.476,65.605C205.045,69.894 200.533,72.691 195.014,72.691C186.809,72.691 182.67,67.321 182.67,58.707L182.67,34.989L186.25,34.989" style="fill:white;fill-rule:nonzero;"/>
        <path d="M223.96,72.09L223.96,34.98L225.824,34.98C226.682,34.98 227.017,35.278 227.055,36.136L227.353,43.968C229.74,37.968 233.655,34.346 239.473,34.346C241.71,34.346 243.575,34.831 245.253,35.726L244.768,38.187C244.693,38.597 244.433,38.784 244.022,38.784C243.425,38.784 241.933,37.814 238.801,37.814C233.17,37.814 229.741,41.394 227.501,47.958L227.501,72.088L223.96,72.088" style="fill:white;fill-rule:nonzero;"/>
        <path d="M282.14,50.647C282.14,51.729 281.841,52.064 281.13,52.064L254.317,52.064L254.317,52.773C254.317,63.923 259.687,69.741 268.041,69.741C275.537,69.741 278.781,65.751 279.751,65.751C280.087,65.751 280.311,65.863 280.497,66.124L281.467,67.317C279.08,70.3 273.374,72.575 267.78,72.575C257.599,72.575 250.811,65.378 250.811,52.773C250.811,42.145 257.002,34.388 267.556,34.388C275.909,34.388 282.137,40.243 282.137,50.647M254.466,49.79L278.93,49.79C278.93,41.847 274.343,37.036 267.593,37.036C259.985,37.036 255.36,42.033 254.463,49.79" style="fill:white;fill-rule:nonzero;"/>
    </g>
    <path d="M291.65,85.22L291.65,34.99L293.589,34.99C294.223,34.99 294.671,35.214 294.708,35.922L295.043,41.665C298.325,37.19 302.726,34.355 308.208,34.355C317.345,34.355 322.677,40.658 322.677,53.3C322.677,64.152 316.934,72.579 306.527,72.579C301.456,72.579 297.876,70.715 295.19,67.098L295.19,85.218L291.647,85.218L291.647,85.219M295.19,44.495L295.19,63.962C298.024,68.251 301.38,69.779 305.819,69.779C314.545,69.779 319.02,63.067 319.02,53.297C319.02,42.257 314.843,37.227 307.199,37.227C302.276,37.227 298.286,39.912 295.189,44.499" style="fill:rgb(246,138,36);fill-rule:nonzero;"/>
    <g>
        <path d="M331.6,72.09L331.6,34.98L333.465,34.98C334.322,34.98 334.658,35.278 334.695,36.136L334.993,43.968C337.38,37.968 341.296,34.346 347.113,34.346C349.351,34.346 351.216,34.831 352.893,35.726L352.409,38.187C352.335,38.597 352.073,38.784 351.663,38.784C351.066,38.784 349.575,37.814 346.442,37.814C340.811,37.814 337.382,41.394 335.142,47.958L335.142,72.088L331.6,72.088" style="fill:white;fill-rule:nonzero;"/>
        <path d="M392.24,53.52C392.24,65.118 386.012,72.58 375.346,72.58C364.681,72.58 358.415,65.122 358.415,53.52C358.415,41.918 364.681,34.39 375.346,34.39C386.013,34.39 392.24,41.923 392.24,53.52M388.586,53.52C388.586,43.637 384.186,37.186 375.347,37.186C366.546,37.186 362.072,43.638 362.072,53.52C362.072,63.477 366.547,69.779 375.347,69.779C384.186,69.779 388.586,63.477 388.586,53.52" style="fill:white;fill-rule:nonzero;"/>
        <path d="M432.59,53.52C432.59,65.118 426.362,72.58 415.696,72.58C405.031,72.58 398.765,65.122 398.765,53.52C398.765,41.918 405.031,34.39 415.696,34.39C426.362,34.39 432.59,41.923 432.59,53.52M428.936,53.52C428.936,43.637 424.536,37.186 415.697,37.186C406.896,37.186 402.422,43.638 402.422,53.52C402.422,63.477 406.897,69.779 415.697,69.779C424.535,69.779 428.936,63.477 428.936,53.52" style="fill:white;fill-rule:nonzero;"/>
        <path d="M443.3,72.09L443.3,38.86L438.079,38.524C437.371,38.487 436.998,38.151 436.998,37.592L436.998,36.137L443.3,36.137L443.3,31.438C443.3,22.936 447.887,18.647 454.674,18.647C456.203,18.647 457.882,18.945 459.075,19.43L458.963,21.146C458.926,21.481 458.702,21.668 458.254,21.668C457.658,21.668 456.65,21.444 455.159,21.444C450.236,21.444 446.768,24.129 446.768,31.554L446.768,36.141L458.818,36.141L458.818,38.789L446.847,38.789L446.847,72.089L443.305,72.089" style="fill:white;fill-rule:nonzero;"/>
        <path d="M486.37,39.572C486.183,39.907 485.923,40.094 485.55,40.094C484.431,40.094 482.306,37.074 476.376,37.074C471.006,37.074 467.389,40.393 467.389,44.159C467.389,53.445 488.049,49.189 488.049,61.239C488.049,67.654 483.276,72.688 475.029,72.688C469.808,72.688 466.191,70.861 463.208,68.175L464.065,66.907C464.326,66.497 464.549,66.31 465.109,66.31C466.415,66.31 468.54,70.077 475.179,70.077C481.444,70.077 484.726,66.348 484.726,61.835C484.726,51.916 464.029,56.651 464.029,44.42C464.029,39.124 468.727,34.39 476.299,34.39C480.811,34.39 484.204,35.658 487.151,38.343L486.367,39.575" style="fill:white;fill-rule:nonzero;"/>
    </g>
</svg>
