<svg xmlns="http://www.w3.org/2000/svg" height="91.45" viewBox="0 0 491.97 91.448" enable-background="new 0 0 491.97 91.448"><g fill="none" stroke="#f68a24" stroke-linejoin="round" stroke-linecap="round" stroke-width="3.2" stroke-miterlimit="5"><path d="m52.53 80.25l-13.24 9.6-37.69-51.977 20.725-15.03"/><path d="m55.2 72.905l-15.605 4.905-19.246-61.26 25.455-7.997"/><path d="m62.42 66.02l-16.499.04-.132-64.46 41.23.033"/></g><path fill="#f68a24" d="m109.64 19.322v3.17h-27.783v22.19h24.05v3.17h-24.05v24.24h-3.841v-52.768h31.624"/><g fill="#4e5253"><path d="m119.3 34.985v23.718c0 6.974 3.133 11.15 9.659 11.15 4.811 0 9.06-2.61 12.381-6.974v-27.894h3.58v37.11h-1.977c-.708 0-1.044-.336-1.082-.97l-.335-5.52c-3.431 4.289-7.943 7.086-13.462 7.086-8.205 0-12.344-5.37-12.344-13.984v-23.718h3.58"/><path d="m159.17 64.15v-25.359h-5.333c-.56 0-.933-.298-.933-.858v-1.379l6.34-.448.895-13.276c.038-.448.373-.858.933-.858h1.678v14.171h11.672v2.648h-11.672v25.17c0 4.065 2.237 5.817 5.109 5.817 3.542 0 5.146-2.498 5.855-2.498.187 0 .41.111.597.373l.97 1.566c-1.902 2.088-4.998 3.468-8.13 3.468-5.04.001-7.981-2.721-7.981-8.539"/><path d="m186.25 34.985v23.718c0 6.974 3.133 11.15 9.659 11.15 4.811 0 9.06-2.61 12.381-6.974v-27.894h3.58v37.11h-1.977c-.708 0-1.044-.336-1.082-.97l-.335-5.52c-3.431 4.289-7.943 7.086-13.462 7.086-8.205 0-12.344-5.37-12.344-13.984v-23.718h3.58"/><path d="m223.96 72.09v-37.11h1.864c.858 0 1.193.298 1.231 1.156l.298 7.832c2.387-6 6.302-9.622 12.12-9.622 2.237 0 4.102.485 5.78 1.38l-.485 2.461c-.075.41-.335.597-.746.597-.597 0-2.089-.97-5.221-.97-5.631 0-9.06 3.58-11.3 10.144v24.13c0 0-3.541 0-3.541 0"/><path d="m282.14 50.647c0 1.082-.299 1.417-1.01 1.417h-26.813v.709c0 11.15 5.37 16.968 13.724 16.968 7.496 0 10.74-3.99 11.71-3.99.336 0 .56.112.746.373l.97 1.193c-2.387 2.983-8.093 5.258-13.687 5.258-10.181 0-16.969-7.197-16.969-19.802 0-10.628 6.191-18.385 16.745-18.385 8.353 0 14.581 5.855 14.581 16.259m-27.671-.857h24.464c0-7.943-4.587-12.754-11.337-12.754-7.608 0-12.233 4.997-13.13 12.754"/></g><path fill="#f68a24" d="m291.65 85.22v-50.23h1.939c.634 0 1.082.224 1.119.932l.335 5.743c3.282-4.475 7.683-7.31 13.165-7.31 9.137 0 14.469 6.303 14.469 18.945 0 10.852-5.743 19.279-16.15 19.279-5.071 0-8.651-1.864-11.337-5.481v18.12h-3.543v.001m3.543-40.724v19.467c2.834 4.289 6.19 5.817 10.629 5.817 8.726 0 13.201-6.712 13.201-16.482 0-11.04-4.177-16.07-11.821-16.07-4.923 0-8.913 2.685-12.01 7.272"/><g fill="#4e5253"><path d="m331.6 72.09v-37.11h1.865c.857 0 1.193.298 1.23 1.156l.298 7.832c2.387-6 6.303-9.622 12.12-9.622 2.238 0 4.103.485 5.78 1.38l-.484 2.461c-.074.41-.336.597-.746.597-.597 0-2.088-.97-5.221-.97-5.631 0-9.06 3.58-11.3 10.144v24.13c0 0-3.542 0-3.542 0"/><path d="m392.24 53.52c0 11.598-6.228 19.06-16.894 19.06-10.665 0-16.931-7.458-16.931-19.06s6.266-19.13 16.931-19.13c10.667 0 16.894 7.533 16.894 19.13m-3.654 0c0-9.883-4.4-16.334-13.239-16.334-8.801 0-13.275 6.452-13.275 16.334 0 9.957 4.475 16.259 13.275 16.259 8.839 0 13.239-6.302 13.239-16.259"/><path d="m432.59 53.52c0 11.598-6.228 19.06-16.894 19.06-10.665 0-16.931-7.458-16.931-19.06s6.266-19.13 16.931-19.13c10.666 0 16.894 7.533 16.894 19.13m-3.654 0c0-9.883-4.4-16.334-13.239-16.334-8.801 0-13.275 6.452-13.275 16.334 0 9.957 4.475 16.259 13.275 16.259 8.838 0 13.239-6.302 13.239-16.259"/><path d="m443.3 72.09v-33.23l-5.221-.336c-.708-.037-1.081-.373-1.081-.932v-1.455h6.302v-4.699c0-8.502 4.587-12.791 11.374-12.791 1.529 0 3.208.298 4.401.783l-.112 1.716c-.037.335-.261.522-.709.522-.596 0-1.604-.224-3.095-.224-4.923 0-8.391 2.685-8.391 10.11v4.587h12.05v2.648h-11.971v33.3h-3.542"/><path d="m486.37 39.572c-.187.335-.447.522-.82.522-1.119 0-3.244-3.02-9.174-3.02-5.37 0-8.987 3.319-8.987 7.085 0 9.286 20.66 5.03 20.66 17.08 0 6.415-4.773 11.449-13.02 11.449-5.221 0-8.838-1.827-11.821-4.513l.857-1.268c.261-.41.484-.597 1.044-.597 1.306 0 3.431 3.767 10.07 3.767 6.265 0 9.547-3.729 9.547-8.242 0-9.919-20.697-5.184-20.697-17.415 0-5.296 4.698-10.03 12.27-10.03 4.512 0 7.905 1.268 10.852 3.953l-.784 1.232"/></g></svg>